PathFileType	4	(X/Y/Z)	/Users/itak/Documents/Research/Walk-IL/dataset/trc/00106_00007.trc
DataRate	CameraRate	NumFrames	NumMarkers	Units	OrigDataRate	OrigDataStartFrame	OrigNumFrames
100.000000	100.000000	4	53	mm	100.000000	263	527
Frame#	Time	RPSI			LPSI			L3			STRN			T10			C7			CLAV			RBAK			LBAK			LSHO			LUPA			LAEL			LAOL			LWTS			LWPS			LFRA			LIFD			LHPS			LHTS			RSHO			RUPA			RAEL			RAOL			RWTS			RWPS			RFRA			RIFD			RHTS			RHPS			RBHD			LFHD			RFHD			LBHD			LHIP			RHIP			RASI			LASI			LKNE			LTHI			LANK			LTIP			LTOE			LMT1			LMT5			LHEE			RKNE			RTHI			RANK			RTIP			RTOE			RMT1			RMT5			RHEE			
		X1	Y1	Z1	X2	Y2	Z2	X3	Y3	Z3	X4	Y4	Z4	X5	Y5	Z5	X6	Y6	Z6	X7	Y7	Z7	X8	Y8	Z8	X9	Y9	Z9	X10	Y10	Z10	X11	Y11	Z11	X12	Y12	Z12	X13	Y13	Z13	X14	Y14	Z14	X15	Y15	Z15	X16	Y16	Z16	X17	Y17	Z17	X18	Y18	Z18	X19	Y19	Z19	X20	Y20	Z20	X21	Y21	Z21	X22	Y22	Z22	X23	Y23	Z23	X24	Y24	Z24	X25	Y25	Z25	X26	Y26	Z26	X27	Y27	Z27	X28	Y28	Z28	X29	Y29	Z29	X30	Y30	Z30	X31	Y31	Z31	X32	Y32	Z32	X33	Y33	Z33	X34	Y34	Z34	X35	Y35	Z35	X36	Y36	Z36	X37	Y37	Z37	X38	Y38	Z38	X39	Y39	Z39	X40	Y40	Z40	X41	Y41	Z41	X42	Y42	Z42	X43	Y43	Z43	X44	Y44	Z44	X45	Y45	Z45	X46	Y46	Z46	X47	Y47	Z47	X48	Y48	Z48	X49	Y49	Z49	X50	Y50	Z50	X51	Y51	Z51	X52	Y52	Z52	X53	Y53	Z53	

264	2.63	-926.608154296875	1098.659790039062	-218.9433898925781	-924.34619140625	1104.325073242188	-354.6643676757812	-930.6776733398438	1141.312255859375	-292.1273803710938	-694.1920166015625	1326.975463867188	-285.3719787597656	-952.3622436523438	1297.6845703125	-301.1466674804688	-885.8466796875	1585.08837890625	-317.8840026855469	-715.9349365234375	1464.7626953125	-289.2930603027344	-963.16357421875	1405.443115234375	-235.7753448486328	-883.3569946289062	1565.348266601562	-421.0960998535156	-790.069580078125	1543.477905273438	-476.2056274414062	-795.0264282226562	1413.494750976562	-548.7264404296875	-747.7205200195312	1199.295166015625	-575.0828247070312	-817.2029418945312	1172.058837890625	-529.381103515625	-587.6729736328125	981.9930419921875	-513.325927734375	-652.3623657226562	932.5488891601562	-550.296630859375	-702.2705078125	1091.050537109375	-575.6217041015625	-518.7970581054688	803.79345703125	-483.2305297851562	-600.6705322265625	870.998291015625	-544.8466796875	-543.4586791992188	902.4823608398438	-519.8392944335938	-850.562255859375	1561.53125	-130.2657165527344	-880.3536987304688	1490.088745117188	-69.76653289794922	-933.5228881835938	1201.138916015625	-55.13250350952148	-923.4075927734375	1199.739868164062	-152.1780090332031	-827.6082763671875	939.7747802734375	-47.53889083862305	-907.08056640625	934.8597412109375	-28.1866283416748	-923.7940063476562	1125.816772460938	-36.77399063110352	-833.1614379882812	743.7521362304688	-69.66683959960938	-816.8674926757812	827.4444580078125	-40.93197631835938	-888.034423828125	830.3787231445312	-21.20656776428223	-848.45556640625	1744.50146484375	-227.485595703125	-688.72216796875	1815.903076171875	-360.849609375	-689.5453491210938	1822.354125976562	-230.8759002685547	-855.8657836914062	1741.7216796875	-363.1637573242188	-836.262451171875	1013.358093261719	-464.5835571289062	-796.1149291992188	1002.869384765625	-101.7107086181641	-719.1160888671875	1073.386108398438	-157.8737945556641	-724.5020141601562	1070.561157226562	-422.7794799804688	-886.6253662109375	512.7326049804688	-409.69140625	-880.8760986328125	660.2862548828125	-443.6718444824219	-1119.20361328125	49.03435897827148	-371.7197875976562	-1046.258056640625	293.0833740234375	-423.5015869140625	-893.7422485351562	36.034912109375	-297.3505859375	-976.15283203125	45.75385284423828	-272.7864685058594	-994.78173828125	33.01144409179688	-391.600341796875	-1191.7734375	69.50335693359375	-315.4120178222656	-646.2255859375	540.492431640625	-150.1781616210938	-723.6727905273438	803.3441162109375	-104.4711151123047	-563.3565673828125	28.48092460632324	-184.4735107421875	-627.4144897460938	407.8748779296875	-142.7516326904297	-358.6776733398438	120.8043899536133	-228.5980377197266	-404.849609375	90.35365295410156	-274.3291320800781	-438.9842224121094	67.07807159423828	-162.0414733886719	-621.4765625	23.18012428283691	-233.0626678466797	
265	2.64	-915.968505859375	1098.690307617188	-217.6823577880859	-914.3442993164062	1103.972290039062	-353.4878540039062	-920.3733520507812	1140.964233398438	-290.9263000488281	-684.3406372070312	1326.87158203125	-285.1251220703125	-942.6146240234375	1297.268310546875	-299.9731140136719	-876.6680908203125	1584.803466796875	-316.8583374023438	-706.497314453125	1464.566284179688	-288.88525390625	-953.5444946289062	1404.953735351562	-234.5219421386719	-874.46875	1565.0771484375	-420.1083374023438	-781.3284301757812	1543.180419921875	-475.5742797851562	-786.524169921875	1413.100219726562	-547.978515625	-739.4966430664062	1198.770874023438	-574.1737670898438	-808.9026489257812	1171.687255859375	-528.2307739257812	-579.7298583984375	981.20703125	-512.6014404296875	-644.6632690429688	931.8809814453125	-549.38525390625	-694.28662109375	1090.422607421875	-574.6906127929688	-511.1359558105469	802.9137573242188	-482.5979919433594	-593.0906372070312	870.2090454101562	-544.0061645507812	-535.7127075195312	901.6278076171875	-519.1793212890625	-840.7138061523438	1561.097290039062	-129.2982482910156	-870.0950927734375	1489.488647460938	-68.76251983642578	-922.6160888671875	1200.423583984375	-54.24672698974609	-912.7570190429688	1199.102905273438	-151.3395385742188	-817.6864624023438	938.7003784179688	-47.17319488525391	-897.2227783203125	934.1510009765625	-27.7143497467041	-913.0219116210938	1125.14599609375	-36.02097702026367	-824.2971801757812	742.740234375	-69.56258392333984	-807.464111328125	826.3046875	-40.72208404541016	-878.5531005859375	829.5519409179688	-20.84711647033691	-839.1307983398438	1744.314331054688	-226.7287445068359	-679.5137939453125	1815.728515625	-360.21630859375	-680.194580078125	1822.143798828125	-230.2253265380859	-846.6485595703125	1741.57080078125	-362.3757934570312	-826.7545776367188	1012.916687011719	-463.5821838378906	-785.0237426757812	1003.060791015625	-100.9487609863281	-708.30224609375	1073.414428710938	-157.4775238037109	-714.6934814453125	1070.216918945312	-422.405029296875	-878.1701049804688	512.3493041992188	-409.3703918457031	-871.8145141601562	660.07861328125	-443.1058654785156	-1118.474975585938	51.50896453857422	-372.4488525390625	-1041.421997070312	294.8595275878906	-423.5563049316406	-893.74951171875	35.97623062133789	-297.4552307128906	-975.7841186523438	46.28356170654297	-273.234375	-994.5471801757812	33.09442901611328	-391.7705993652344	-1190.756225585938	73.68318939208984	-316.2432861328125	-637.0454711914062	540.106689453125	-151.0985870361328	-712.7553100585938	803.3201904296875	-104.900749206543	-561.1812133789062	27.92869567871094	-185.4865570068359	-619.3560180664062	407.1492004394531	-143.8989105224609	-354.5033569335938	114.4591217041016	-231.0911712646484	-401.3574829101562	84.61005401611328	-276.4891052246094	-435.8303527832031	63.2819709777832	-164.0171661376953	-619.421875	23.8444881439209	-233.9779357910156	
266	2.65	-905.2044677734375	1099.133056640625	-216.4782257080078	-904.1900024414062	1103.916381835938	-352.3661499023438	-909.9071655273438	1140.94775390625	-289.7813720703125	-674.3692626953125	1327.108032226562	-284.8401794433594	-932.75830078125	1297.131225585938	-298.8447875976562	-867.4447021484375	1584.8056640625	-315.7828674316406	-697.0031127929688	1464.69140625	-288.4242248535156	-943.8615112304688	1404.743041992188	-233.2427062988281	-865.5296020507812	1565.108154296875	-419.0610046386719	-772.5322265625	1543.207275390625	-474.8934020996094	-778.0070190429688	1413.0048828125	-547.1570434570312	-731.3942260742188	1198.528076171875	-573.1707763671875	-800.7146606445312	1171.656982421875	-526.947509765625	-572.1987915039062	980.4286499023438	-511.9175720214844	-637.4918212890625	931.34521484375	-548.4774780273438	-686.5527954101562	1090.015869140625	-573.6982421875	-504.159912109375	801.916259765625	-482.102294921875	-586.1324462890625	869.46142578125	-543.2213745117188	-528.52392578125	900.71142578125	-518.602294921875	-830.8319091796875	1560.93310546875	-128.2777557373047	-859.784423828125	1489.152954101562	-67.70895385742188	-911.4893188476562	1199.940307617188	-53.2728157043457	-901.9502563476562	1198.710571289062	-150.421630859375	-807.5128173828125	937.8888549804688	-46.73541641235352	-887.08447265625	933.6865234375	-27.15029716491699	-902.0226440429688	1124.71533203125	-35.18975067138672	-815.1112670898438	741.9923706054688	-69.35509490966797	-797.792724609375	825.4247436523438	-40.43366241455078	-868.7981567382812	828.9747924804688	-20.39466667175293	-829.7643432617188	1744.473510742188	-225.9102020263672	-670.2462768554688	1815.846313476562	-359.5309143066406	-670.7755737304688	1822.235229492188	-229.5234527587891	-837.3914794921875	1741.760131835938	-361.5199890136719	-817.0441284179688	1012.688537597656	-462.5566711425781	-773.8546142578125	1003.746520996094	-100.1199340820312	-697.3818359375	1073.836547851562	-157.044677734375	-704.7308959960938	1070.1484375	-421.97412109375	-869.1302490234375	512.0836791992188	-409.0213928222656	-862.3466186523438	660.0187377929688	-442.4717712402344	-1117.547729492188	54.33744049072266	-373.2523193359375	-1036.159545898438	296.9043884277344	-423.593505859375	-893.7144165039062	35.89519500732422	-297.5704956054688	-975.3275146484375	46.91564178466797	-273.725830078125	-994.2432250976562	33.17394638061523	-391.8974609375	-1189.455200195312	78.41855621337891	-317.1779174804688	-627.6881713867188	540.19189453125	-151.9191589355469	-701.6341552734375	803.799072265625	-105.4021224975586	-560.1196899414062	27.48995208740234	-186.1125183105469	-611.2932739257812	406.8016967773438	-144.8397827148438	-351.2397155761719	107.5751037597656	-233.0524597167969	-398.7552185058594	78.46622467041016	-278.0886840820312	-433.781005859375	59.39265441894531	-165.3787231445312	-618.3423461914062	24.62111473083496	-234.5630645751953	
267	2.66	-894.3583984375	1099.984375	-215.3487854003906	-893.913818359375	1104.174560546875	-351.3052368164062	-899.3270874023438	1141.291137695312	-288.7005004882812	-664.2892456054688	1327.712768554688	-284.5247802734375	-922.8133544921875	1297.29736328125	-297.7801513671875	-858.1826782226562	1585.113647460938	-314.6784362792969	-687.4487915039062	1465.17724609375	-287.9183959960938	-934.1092529296875	1404.833862304688	-231.967041015625	-856.533203125	1565.460205078125	-417.9742736816406	-763.6688842773438	1543.59375	-474.1698608398438	-769.4508666992188	1413.247680664062	-546.2798461914062	-723.4085693359375	1198.605712890625	-572.0740356445312	-792.6373901367188	1172.013061523438	-525.5366821289062	-565.0961303710938	979.6929321289062	-511.264404296875	-630.8573608398438	930.9818115234375	-547.5657958984375	-679.0707397460938	1089.871948242188	-572.6454467773438	-497.8932800292969	800.8392333984375	-481.73876953125	-579.8115844726562	868.8004760742188	-542.4887084960938	-521.90673828125	899.771240234375	-518.1034545898438	-820.9340209960938	1561.069213867188	-127.2267990112305	-849.447021484375	1489.11279296875	-66.62963104248047	-900.157958984375	1199.728637695312	-52.2282829284668	-890.9986572265625	1198.599365234375	-149.4402160644531	-797.0806884765625	937.3840942382812	-46.22480773925781	-876.6546020507812	933.5059204101562	-26.49407768249512	-890.798095703125	1124.566162109375	-34.29094314575195	-805.58251953125	741.5485229492188	-69.03903198242188	-787.8323974609375	824.8497924804688	-40.06131744384766	-858.7528076171875	828.6896362304688	-19.84568023681641	-820.3525390625	1745.002807617188	-225.0262145996094	-660.921875	1816.271362304688	-358.7941284179688	-661.2899169921875	1822.644653320312	-228.7729949951172	-828.1014404296875	1742.316772460938	-360.599853515625	-807.1436157226562	1012.710754394531	-461.5307006835938	-762.64111328125	1004.931701660156	-99.23560333251953	-686.3806762695312	1074.678588867188	-156.5811309814453	-694.6428833007812	1070.391723632812	-421.4907531738281	-859.4144897460938	511.9453430175781	-408.6704406738281	-852.404052734375	660.1165161132812	-441.7753295898438	-1116.37744140625	57.55076599121094	-374.1087036132812	-1030.397338867188	299.23681640625	-423.6173095703125	-893.623779296875	35.78283309936523	-297.694580078125	-974.763671875	47.65006256103516	-274.25244140625	-993.8539428710938	33.25279235839844	-391.9781494140625	-1187.79345703125	83.76359558105469	-318.19189453125	-618.1830444335938	540.730712890625	-152.6103057861328	-690.356201171875	804.7764892578125	-105.9134063720703	-559.7130126953125	27.14997100830078	-186.3616485595703	-603.1742553710938	406.8417663574219	-145.5212860107422	-348.6260375976562	100.7277069091797	-234.5074920654297	-396.8018188476562	72.49137115478516	-279.1521911621094	-432.4353332519531	55.71611404418945	-166.1744537353516	-617.822265625	25.46666717529297	-234.8035736083984	
